<svg width="268" height="205" viewBox="0 0 268 205" fill="none" xmlns="http://www.w3.org/2000/svg">
<g clip-path="url(#clip0_12_218)">
<path d="M268 202.459L76.153 205L0 193.14H118.885L268 202.459Z" fill="#E6E6E6"/>
<path d="M220.922 53.9325C237.871 53.9325 251.611 41.8593 251.611 26.9663C251.611 12.0732 237.871 0 220.922 0C203.973 0 190.233 12.0732 190.233 26.9663C190.233 41.8593 203.973 53.9325 220.922 53.9325Z" fill="#FF6584"/>
<path d="M54.29 194.55C54.29 194.55 54.7389 186.285 63.9415 187.245Z" fill="#3F3D56"/>
<path d="M51.6899 186.685C54.2336 186.685 56.2957 184.873 56.2957 182.638C56.2957 180.403 54.2336 178.591 51.6899 178.591C49.1461 178.591 47.084 180.403 47.084 182.638C47.084 184.873 49.1461 186.685 51.6899 186.685Z" fill="#6C63FF"/>
<path d="M52.2405 189.453H50.9404V197.449H52.2405V189.453Z" fill="#3F3D56"/>
<path d="M205.968 195.962C205.968 195.962 206.417 187.697 215.62 188.657Z" fill="#3F3D56"/>
<path d="M203.368 188.097C205.912 188.097 207.974 186.285 207.974 184.05C207.974 181.814 205.912 180.002 203.368 180.002C200.824 180.002 198.762 181.814 198.762 184.05C198.762 186.285 200.824 188.097 203.368 188.097Z" fill="#6C63FF"/>
<path d="M203.919 190.865H202.619V198.861H203.919V190.865Z" fill="#3F3D56"/>
<path d="M228.141 197.374C228.141 197.374 228.59 189.108 237.793 190.069Z" fill="#3F3D56"/>
<path d="M225.541 189.508C228.085 189.508 230.147 187.696 230.147 185.461C230.147 183.226 228.085 181.414 225.541 181.414C222.998 181.414 220.935 183.226 220.935 185.461C220.935 187.696 222.998 189.508 225.541 189.508Z" fill="#6C63FF"/>
<path d="M226.092 192.276H224.792V200.273H226.092V192.276Z" fill="#3F3D56"/>
<path d="M90.6028 190.597C90.6028 190.597 91.0517 182.332 100.254 183.292Z" fill="#3F3D56"/>
<path d="M88.0027 182.731C90.5464 182.731 92.6085 180.919 92.6085 178.684C92.6085 176.449 90.5464 174.637 88.0027 174.637C85.4589 174.637 83.3969 176.449 83.3969 178.684C83.3969 180.919 85.4589 182.731 88.0027 182.731Z" fill="#6C63FF"/>
<path d="M88.5533 185.5H87.2532V193.496H88.5533V185.5Z" fill="#3F3D56"/>
<path d="M22.1548 192.009C22.1548 192.009 22.6037 183.743 31.8063 184.704Z" fill="#3F3D56"/>
<path d="M19.5547 184.143C22.0984 184.143 24.1605 182.331 24.1605 180.096C24.1605 177.861 22.0984 176.049 19.5547 176.049C17.0109 176.049 14.9489 177.861 14.9489 180.096C14.9489 182.331 17.0109 184.143 19.5547 184.143Z" fill="#6C63FF"/>
<path d="M20.1053 186.911H18.8052V194.908H20.1053V186.911Z" fill="#3F3D56"/>
<path d="M133.514 177.646C161.228 177.646 183.695 157.905 183.695 133.553C183.695 109.201 161.228 89.4595 133.514 89.4595C105.8 89.4595 83.3334 109.201 83.3334 133.553C83.3334 157.905 105.8 177.646 133.514 177.646Z" fill="#3F3D56"/>
<path d="M101.922 137.092C103.169 135.781 104.727 134.727 106.488 134.003C108.249 133.279 110.17 132.904 112.114 132.904C114.058 132.904 115.978 133.279 117.739 134.003C119.5 134.727 121.059 135.781 122.305 137.092C124.437 135.304 125.911 132.994 126.537 130.463C127.162 127.931 126.91 125.293 125.814 122.888C124.717 120.484 122.826 118.422 120.384 116.971C117.942 115.519 115.062 114.743 112.114 114.743C109.165 114.743 106.285 115.519 103.843 116.971C101.401 118.422 99.5099 120.484 98.4134 122.888C97.3168 125.293 97.065 127.931 97.6904 130.463C98.3158 132.994 99.7897 135.304 101.922 137.092Z" fill="white"/>
<path d="M141.772 137.092C143.018 135.781 144.577 134.727 146.338 134.003C148.099 133.279 150.019 132.904 151.963 132.904C153.907 132.904 155.827 133.279 157.588 134.003C159.349 134.727 160.908 135.781 162.154 137.092C164.287 135.304 165.761 132.994 166.386 130.463C167.012 127.931 166.76 125.293 165.663 122.888C164.567 120.484 162.676 118.422 160.234 116.971C157.792 115.519 154.911 114.743 151.963 114.743C149.015 114.743 146.134 115.519 143.692 116.971C141.25 118.422 139.359 120.484 138.263 122.888C137.166 125.293 136.914 127.931 137.54 130.463C138.165 132.994 139.639 135.304 141.772 137.092Z" fill="white"/>
<path d="M107.079 127.757C109.883 127.757 112.156 125.76 112.156 123.296C112.156 120.832 109.883 118.835 107.079 118.835C104.275 118.835 102.002 120.832 102.002 123.296C102.002 125.76 104.275 127.757 107.079 127.757Z" fill="#3F3D56"/>
<path d="M146.927 127.757C149.731 127.757 152.004 125.76 152.004 123.296C152.004 120.832 149.731 118.835 146.927 118.835C144.123 118.835 141.85 120.832 141.85 123.296C141.85 125.76 144.123 127.757 146.927 127.757Z" fill="#3F3D56"/>
<path d="M97.3545 149.764C100.615 149.764 103.258 147.441 103.258 144.576C103.258 141.711 100.615 139.389 97.3545 139.389C94.094 139.389 91.4509 141.711 91.4509 144.576C91.4509 147.441 94.094 149.764 97.3545 149.764Z" fill="#FF6584"/>
<path d="M165.246 149.764C168.507 149.764 171.15 147.441 171.15 144.576C171.15 141.711 168.507 139.389 165.246 139.389C161.986 139.389 159.343 141.711 159.343 144.576C159.343 147.441 161.986 149.764 165.246 149.764Z" fill="#FF6584"/>
<path d="M131.3 134.201L126.873 151.06L134.252 144.576L131.3 134.201Z" fill="#FF6584"/>
<path d="M154.051 199.045L149.024 195.338L149.141 199.045H147.58L147.455 195.125L140.668 199.045H137.827L147.405 193.513L147.034 181.898L146.756 173.125L148.314 173.088L148.595 181.898L148.966 193.503L156.479 199.045H154.051Z" fill="#3F3D56"/>
<path d="M130.435 199.045L125.408 195.338L125.525 199.045H123.968L123.843 195.125L117.056 199.045H114.214L123.788 193.513L123.418 181.898L123.14 173.125L124.701 173.088L124.983 181.898L125.349 193.503L132.862 199.045H130.435Z" fill="#3F3D56"/>
<path d="M134.252 86.2172C132.875 86.2172 131.661 87.157 130.848 88.6006C130.133 86.4299 128.629 84.9204 126.873 84.9204C126.753 84.9308 126.635 84.9483 126.518 84.9727C125.843 82.6551 124.274 81.0298 122.445 81.0298C119.999 81.0298 118.017 83.9329 118.017 87.5141C118.017 91.0953 119.999 93.9985 122.445 93.9985C122.564 93.988 122.683 93.9705 122.799 93.9461C123.474 96.2637 125.043 97.8891 126.873 97.8891C128.25 97.8891 129.464 96.9492 130.276 95.5057C130.992 97.6764 132.496 99.1859 134.252 99.1859C136.698 99.1859 138.68 96.2828 138.68 92.7016C138.68 89.1204 136.698 86.2172 134.252 86.2172Z" fill="#3F3D56"/>
<path d="M86.413 150.262C84.4748 150.262 82.5556 149.927 80.765 149.275C78.9743 148.624 77.3473 147.668 75.9768 146.464C74.6063 145.26 73.5191 143.83 72.7774 142.257C72.0357 140.683 71.654 138.997 71.654 137.294V130.809C71.654 127.37 73.2089 124.071 75.9768 121.639C78.7447 119.207 82.4987 117.841 86.413 117.841V150.262Z" fill="#6C63FF"/>
<path d="M180.615 117.841C182.554 117.841 184.473 118.176 186.263 118.828C188.054 119.48 189.681 120.435 191.052 121.639C192.422 122.843 193.509 124.273 194.251 125.847C194.993 127.42 195.374 129.106 195.374 130.809V137.294C195.374 138.997 194.993 140.683 194.251 142.257C193.509 143.83 192.422 145.26 191.052 146.464C189.681 147.668 188.054 148.624 186.263 149.275C184.473 149.927 182.554 150.262 180.615 150.262L180.615 117.841Z" fill="#6C63FF"/>
<path d="M188.349 131.828H186.008C186.008 105.733 161.846 84.5025 132.148 84.5025C102.45 84.5025 78.2888 105.733 78.2888 131.828H75.9471C75.9471 104.598 101.159 82.4448 132.148 82.4448C163.138 82.4448 188.349 104.598 188.349 131.828Z" fill="#6C63FF"/>
<path d="M51.7866 92.1702L51.787 92.1694L50.6868 91.7668L46.045 90.0426L44.3811 89.4246L44.2534 89.7078L42.0184 94.6666L48.3086 97.0059L48.3416 97.0322L47.9177 97.9104C47.8597 97.9908 47.8102 98.0756 47.7698 98.1639C47.4729 98.8227 48.0337 99.478 48.5638 99.6624C49.094 99.8469 49.7645 99.4625 50.0614 98.8037C50.3543 98.1539 50.0681 97.3284 49.5515 97.1289L49.5519 97.1282L48.4518 96.7256L44.6883 95.4401L46.8387 90.6693L46.5199 90.5584L44.3688 95.3309L43.9035 95.172L46.063 90.3808L46.1199 90.402L50.5436 92.0472L50.5766 92.0735L50.1528 92.9517C50.0948 93.032 50.0453 93.1168 50.0049 93.2051C49.7079 93.8639 50.2688 94.5192 50.7989 94.7037C51.3291 94.8882 51.9996 94.5037 52.2965 93.845C52.5894 93.1951 52.3032 92.3696 51.7866 92.1702Z" fill="#3F3D56"/>
<path d="M73.558 104.344C71.2746 103.197 71.7315 100.679 71.7315 100.679C71.6741 99.0441 70.1364 99.2755 70.1364 99.2755L69.5768 99.3878C69.3168 99.2817 69.0305 99.2352 68.7446 99.2525L67.8933 99.3784C69.8318 99.7786 69.6725 101.204 69.6725 101.204L69.9441 102.87L64.8647 101.069L65.4479 99.8609C65.5285 99.7493 65.5973 99.6314 65.6533 99.5088C66.0657 98.5938 65.2868 97.6837 64.5505 97.4275C63.8142 97.1712 62.8829 97.7052 62.4705 98.6202C62.0637 99.5227 62.4613 100.669 63.1788 100.946L63.1782 100.947L64.7062 101.506L64.7176 101.475L73.558 104.344ZM70.9787 101.417L71.1415 103.011C70.5664 102.302 70.2962 101.437 70.3791 100.569C70.3656 100.261 70.2471 99.9625 70.0389 99.7136C70.3589 99.8938 70.6161 100.148 70.7819 100.449C70.9478 100.749 71.0159 101.084 70.9787 101.417Z" fill="#3F3D56"/>
<path d="M34.8124 80.7595L34.813 80.7584L33.285 80.1993L26.8989 78.018L28.5107 76.7579C28.826 76.3886 29.2917 76.1406 29.8102 76.066C30.3288 75.9913 30.8601 76.0957 31.2931 76.3574L30.7929 75.7042C30.7929 75.7042 29.8526 74.6103 28.5364 75.7677C28.5364 75.7677 26.9078 77.8773 24.3497 77.3396L33.0862 80.5887L33.132 80.6252L32.5433 81.845C32.4627 81.9565 32.3939 82.0744 32.3379 82.197C31.9255 83.112 32.7044 84.0221 33.4407 84.2783C34.177 84.5346 35.1083 84.0006 35.5207 83.0856C35.9275 82.1831 35.5299 81.0366 34.8124 80.7595Z" fill="#3F3D56"/>
<path d="M58.192 73.6203L57.6033 74.84C57.5227 74.9516 57.4539 75.0694 57.3979 75.192C56.9854 76.107 57.7644 77.0171 58.5007 77.2734C59.237 77.5296 60.1683 76.9956 60.5807 76.0807C60.9875 75.1782 60.5899 74.0316 59.8724 73.7546L59.873 73.7535L58.345 73.1944L53.118 71.4089L56.1046 64.7828L55.6619 64.6287L52.6742 71.2573L52.0278 71.0366L55.0272 64.3821L55.1062 64.4115L61.2504 66.6965L61.2963 66.733L60.7075 67.9528C60.627 68.0643 60.5582 68.1822 60.5022 68.3048C60.0897 69.2198 60.8686 70.1299 61.605 70.3862C62.3413 70.6424 63.2726 70.1084 63.685 69.1934C64.0918 68.2909 63.6942 67.1444 62.9767 66.8674L62.9773 66.8663L61.4493 66.3071L55.205 63.9877L55.0022 63.9124L52.6913 63.054L49.4097 70.3346L58.1461 73.5838L58.192 73.6203Z" fill="#3F3D56"/>
<path d="M30.506 36.3328L30.5071 36.331L27.8767 35.3685L16.8834 31.6134L19.658 29.4443C19.658 29.4443 21.5036 27.1942 24.4477 28.7549L23.5867 27.6304C23.5867 27.6304 21.968 25.7474 19.7022 27.7397C19.7022 27.7397 16.8987 31.3713 12.4951 30.4456L27.5344 36.0388L27.6133 36.1016L26.5999 38.2013C26.4611 38.3934 26.3428 38.5962 26.2463 38.8073C25.5363 40.3824 26.8772 41.9491 28.1447 42.3903C29.4123 42.8314 31.0154 41.9121 31.7253 40.337C32.4256 38.7834 31.7412 36.8097 30.506 36.3328Z" fill="#3F3D56"/>
<path d="M38.5782 67.8759C33.1187 65.1331 34.2112 59.1143 34.2112 59.1143C34.0739 55.2042 30.3974 55.7577 30.3974 55.7577L29.0593 56.026C28.4377 55.7725 27.7533 55.6613 27.0697 55.7026L25.0342 56.0036C29.669 56.9605 29.2882 60.3673 29.2882 60.3673L29.9375 64.3507L17.7932 60.0459L19.1876 57.157C19.3803 56.8903 19.5447 56.6085 19.6787 56.3153C20.6648 54.1277 18.8025 51.9517 17.0419 51.339C15.2814 50.7263 13.0549 52.0031 12.0688 54.1907C11.0962 56.3485 12.0467 59.0898 13.7623 59.7522L13.7609 59.7548L17.4142 61.0916L17.4414 61.0159L38.5782 67.8759ZM32.4111 60.8767L32.8019 64.7028C30.5089 62.0282 30.9776 58.8506 30.9776 58.8506C30.9453 58.1126 30.662 57.4001 30.1642 56.8051C32.7982 58.1901 32.4111 60.8767 32.4111 60.8767Z" fill="#3F3D56"/>
</g>
<defs>
<clipPath id="clip0_12_218">
<rect width="268" height="205" fill="white"/>
</clipPath>
</defs>
</svg>
